<mxfile host="app.diagrams.net" modified="2024-04-19T05:02:24.892Z" agent="Mozilla/5.0 (Windows NT 10.0; Win64; x64) AppleWebKit/537.36 (KHTML, like Gecko) Chrome/123.0.0.0 Safari/537.36" etag="QxenGSB308fi6ZYzTtDx" version="24.2.1" type="device">
  <diagram name="第 1 页" id="Xq5vwsSoOigGqJwIfYUO">
    <mxGraphModel dx="725" dy="743" grid="1" gridSize="10" guides="1" tooltips="1" connect="1" arrows="1" fold="1" page="1" pageScale="1" pageWidth="850" pageHeight="1100" math="0" shadow="0">
      <root>
        <mxCell id="0" />
        <mxCell id="1" parent="0" />
        <mxCell id="nm0qlKRNKEh7cf2dNLq4-3" style="edgeStyle=orthogonalEdgeStyle;rounded=0;orthogonalLoop=1;jettySize=auto;html=1;entryX=0;entryY=0.5;entryDx=0;entryDy=0;fontSize=16;" edge="1" parent="1" source="nm0qlKRNKEh7cf2dNLq4-1" target="nm0qlKRNKEh7cf2dNLq4-2">
          <mxGeometry relative="1" as="geometry" />
        </mxCell>
        <mxCell id="nm0qlKRNKEh7cf2dNLq4-13" style="edgeStyle=orthogonalEdgeStyle;rounded=0;orthogonalLoop=1;jettySize=auto;html=1;exitX=1;exitY=0.25;exitDx=0;exitDy=0;entryX=0;entryY=0.5;entryDx=0;entryDy=0;fontSize=16;" edge="1" parent="1" source="nm0qlKRNKEh7cf2dNLq4-1" target="nm0qlKRNKEh7cf2dNLq4-7">
          <mxGeometry relative="1" as="geometry">
            <Array as="points">
              <mxPoint x="180" y="420" />
              <mxPoint x="180" y="110" />
            </Array>
          </mxGeometry>
        </mxCell>
        <mxCell id="nm0qlKRNKEh7cf2dNLq4-14" style="edgeStyle=orthogonalEdgeStyle;rounded=0;orthogonalLoop=1;jettySize=auto;html=1;exitX=1;exitY=0.75;exitDx=0;exitDy=0;entryX=0;entryY=0.5;entryDx=0;entryDy=0;fontSize=16;" edge="1" parent="1" source="nm0qlKRNKEh7cf2dNLq4-1" target="nm0qlKRNKEh7cf2dNLq4-9">
          <mxGeometry relative="1" as="geometry" />
        </mxCell>
        <mxCell id="nm0qlKRNKEh7cf2dNLq4-1" value="CNN Base&lt;div style=&quot;font-size: 16px;&quot;&gt;(MobileNetV2)&lt;/div&gt;" style="rounded=0;whiteSpace=wrap;html=1;fontSize=16;fillColor=#dae8fc;strokeColor=#6c8ebf;" vertex="1" parent="1">
          <mxGeometry x="40" y="405" width="120" height="60" as="geometry" />
        </mxCell>
        <mxCell id="nm0qlKRNKEh7cf2dNLq4-20" value="" style="edgeStyle=orthogonalEdgeStyle;rounded=0;orthogonalLoop=1;jettySize=auto;html=1;fontSize=16;" edge="1" parent="1" source="nm0qlKRNKEh7cf2dNLq4-2" target="nm0qlKRNKEh7cf2dNLq4-17">
          <mxGeometry relative="1" as="geometry" />
        </mxCell>
        <mxCell id="nm0qlKRNKEh7cf2dNLq4-23" style="edgeStyle=orthogonalEdgeStyle;rounded=0;orthogonalLoop=1;jettySize=auto;html=1;exitX=1;exitY=0.75;exitDx=0;exitDy=0;fontSize=16;" edge="1" parent="1" source="nm0qlKRNKEh7cf2dNLq4-2" target="nm0qlKRNKEh7cf2dNLq4-21">
          <mxGeometry relative="1" as="geometry">
            <Array as="points">
              <mxPoint x="500" y="310" />
              <mxPoint x="500" y="310" />
            </Array>
          </mxGeometry>
        </mxCell>
        <mxCell id="nm0qlKRNKEh7cf2dNLq4-2" value="" style="rounded=0;whiteSpace=wrap;html=1;fontSize=16;fillColor=#d5e8d4;strokeColor=#82b366;" vertex="1" parent="1">
          <mxGeometry x="250" y="220" width="30" height="120" as="geometry" />
        </mxCell>
        <mxCell id="nm0qlKRNKEh7cf2dNLq4-5" value="fc_make&lt;div style=&quot;font-size: 16px;&quot;&gt;(512x49)&lt;/div&gt;" style="text;html=1;align=center;verticalAlign=middle;resizable=0;points=[];autosize=1;strokeColor=none;fillColor=none;fontSize=16;" vertex="1" parent="1">
          <mxGeometry x="220" y="335" width="90" height="50" as="geometry" />
        </mxCell>
        <mxCell id="nm0qlKRNKEh7cf2dNLq4-16" value="" style="edgeStyle=orthogonalEdgeStyle;rounded=0;orthogonalLoop=1;jettySize=auto;html=1;fontSize=16;" edge="1" parent="1" source="nm0qlKRNKEh7cf2dNLq4-7" target="nm0qlKRNKEh7cf2dNLq4-15">
          <mxGeometry relative="1" as="geometry" />
        </mxCell>
        <mxCell id="nm0qlKRNKEh7cf2dNLq4-24" style="edgeStyle=orthogonalEdgeStyle;rounded=0;orthogonalLoop=1;jettySize=auto;html=1;exitX=1;exitY=0.75;exitDx=0;exitDy=0;fontSize=16;" edge="1" parent="1" source="nm0qlKRNKEh7cf2dNLq4-7" target="nm0qlKRNKEh7cf2dNLq4-21">
          <mxGeometry relative="1" as="geometry">
            <Array as="points">
              <mxPoint x="510" y="140" />
              <mxPoint x="510" y="140" />
            </Array>
          </mxGeometry>
        </mxCell>
        <mxCell id="nm0qlKRNKEh7cf2dNLq4-7" value="" style="rounded=0;whiteSpace=wrap;html=1;fontSize=16;fillColor=#d5e8d4;strokeColor=#82b366;" vertex="1" parent="1">
          <mxGeometry x="250" y="50" width="30" height="120" as="geometry" />
        </mxCell>
        <mxCell id="nm0qlKRNKEh7cf2dNLq4-8" value="fc_year&lt;div style=&quot;font-size: 16px;&quot;&gt;(512x16)&lt;/div&gt;" style="text;html=1;align=center;verticalAlign=middle;resizable=0;points=[];autosize=1;strokeColor=none;fillColor=none;fontSize=16;" vertex="1" parent="1">
          <mxGeometry x="220" y="165" width="90" height="50" as="geometry" />
        </mxCell>
        <mxCell id="nm0qlKRNKEh7cf2dNLq4-19" value="" style="edgeStyle=orthogonalEdgeStyle;rounded=0;orthogonalLoop=1;jettySize=auto;html=1;fontSize=16;" edge="1" parent="1" source="nm0qlKRNKEh7cf2dNLq4-9" target="nm0qlKRNKEh7cf2dNLq4-18">
          <mxGeometry relative="1" as="geometry" />
        </mxCell>
        <mxCell id="nm0qlKRNKEh7cf2dNLq4-9" value="" style="rounded=0;whiteSpace=wrap;html=1;fontSize=16;fillColor=#d5e8d4;strokeColor=#82b366;" vertex="1" parent="1">
          <mxGeometry x="250" y="390" width="30" height="120" as="geometry" />
        </mxCell>
        <mxCell id="nm0qlKRNKEh7cf2dNLq4-10" value="fc_type&lt;div style=&quot;font-size: 16px;&quot;&gt;(512x18)&lt;/div&gt;" style="text;html=1;align=center;verticalAlign=middle;resizable=0;points=[];autosize=1;strokeColor=none;fillColor=none;fontSize=16;" vertex="1" parent="1">
          <mxGeometry x="220" y="505" width="90" height="50" as="geometry" />
        </mxCell>
        <mxCell id="nm0qlKRNKEh7cf2dNLq4-15" value="softmax" style="rounded=0;whiteSpace=wrap;html=1;fontSize=16;fillColor=#fff2cc;strokeColor=#d6b656;" vertex="1" parent="1">
          <mxGeometry x="340" y="90" width="120" height="40" as="geometry" />
        </mxCell>
        <mxCell id="nm0qlKRNKEh7cf2dNLq4-17" value="softmax" style="rounded=0;whiteSpace=wrap;html=1;fontSize=16;fillColor=#fff2cc;strokeColor=#d6b656;" vertex="1" parent="1">
          <mxGeometry x="340" y="260" width="120" height="40" as="geometry" />
        </mxCell>
        <mxCell id="nm0qlKRNKEh7cf2dNLq4-18" value="softmax" style="rounded=0;whiteSpace=wrap;html=1;fontSize=16;fillColor=#fff2cc;strokeColor=#d6b656;" vertex="1" parent="1">
          <mxGeometry x="340" y="430" width="120" height="40" as="geometry" />
        </mxCell>
        <mxCell id="nm0qlKRNKEh7cf2dNLq4-27" value="" style="edgeStyle=orthogonalEdgeStyle;rounded=0;orthogonalLoop=1;jettySize=auto;html=1;" edge="1" parent="1" source="nm0qlKRNKEh7cf2dNLq4-21" target="nm0qlKRNKEh7cf2dNLq4-26">
          <mxGeometry relative="1" as="geometry">
            <Array as="points">
              <mxPoint x="490" y="195" />
              <mxPoint x="490" y="195" />
            </Array>
          </mxGeometry>
        </mxCell>
        <mxCell id="nm0qlKRNKEh7cf2dNLq4-21" value="" style="rounded=0;whiteSpace=wrap;html=1;fontSize=16;fillColor=#d5e8d4;strokeColor=#82b366;" vertex="1" parent="1">
          <mxGeometry x="500" y="90" width="30" height="380" as="geometry" />
        </mxCell>
        <mxCell id="nm0qlKRNKEh7cf2dNLq4-22" style="edgeStyle=orthogonalEdgeStyle;rounded=0;orthogonalLoop=1;jettySize=auto;html=1;exitX=1;exitY=0.25;exitDx=0;exitDy=0;fontSize=16;" edge="1" parent="1" source="nm0qlKRNKEh7cf2dNLq4-9" target="nm0qlKRNKEh7cf2dNLq4-21">
          <mxGeometry relative="1" as="geometry">
            <mxPoint x="560" y="420" as="targetPoint" />
            <Array as="points">
              <mxPoint x="500" y="420" />
              <mxPoint x="500" y="420" />
            </Array>
          </mxGeometry>
        </mxCell>
        <mxCell id="nm0qlKRNKEh7cf2dNLq4-25" value="fc_model&lt;br style=&quot;font-size: 16px;&quot;&gt;(512+16+49+18)x196" style="text;html=1;align=center;verticalAlign=middle;resizable=0;points=[];autosize=1;strokeColor=none;fillColor=none;fontSize=16;rotation=0;" vertex="1" parent="1">
          <mxGeometry x="360" y="340" width="180" height="50" as="geometry" />
        </mxCell>
        <mxCell id="nm0qlKRNKEh7cf2dNLq4-26" value="softmax" style="rounded=0;whiteSpace=wrap;html=1;fontSize=16;fillColor=#fff2cc;strokeColor=#d6b656;" vertex="1" parent="1">
          <mxGeometry x="340" y="175" width="120" height="40" as="geometry" />
        </mxCell>
      </root>
    </mxGraphModel>
  </diagram>
</mxfile>
